<?xml version="1.0" encoding="UTF-8"?>
<svg id="_레이어_1" data-name="레이어_1" xmlns="http://www.w3.org/2000/svg" version="1.1" viewBox="0 0 841.89 595.28">
  <!-- Generator: Adobe Illustrator 29.8.5, SVG Export Plug-In . SVG Version: 2.1.1 Build 2)  -->
  <defs>
    <style>
      .st0 {
        fill: #3e3a39;
      }
    </style>
  </defs>
  <path class="st0" d="M267.68,254.26c-6.51,0-11.49,1.85-14.94,5.54-3.45,3.7-5.18,8.92-5.18,15.66v44.34c0,6.75,1.73,11.97,5.18,15.66,3.45,3.69,8.43,5.54,14.94,5.54s11.49-1.85,14.94-5.54c3.45-3.69,5.18-8.92,5.18-15.66v-44.34c0-6.75-1.73-11.97-5.18-15.66-3.45-3.69-8.43-5.54-14.94-5.54ZM274.54,320.65c0,5.54-2.29,8.31-6.87,8.31s-6.87-2.77-6.87-8.31v-46.03c0-5.54,2.29-8.31,6.87-8.31s6.87,2.77,6.87,8.31v46.03Z"/>
  <path class="st0" d="M316.23,255.47h-19.52v84.34h13.25v-34.34h6.27c6.59,0,11.53-1.77,14.82-5.3,3.29-3.53,4.94-8.71,4.94-15.54v-8.31c0-6.83-1.65-12.01-4.94-15.54-3.29-3.53-8.23-5.3-14.82-5.3ZM322.74,285.47c0,2.89-.54,4.94-1.63,6.14s-2.71,1.81-4.88,1.81h-6.27v-25.91h6.27c2.17,0,3.8.6,4.88,1.81s1.63,3.25,1.63,6.14v10Z"/>
  <path class="st0" d="M382.62,329.57v-14.82c0-4.98-.66-8.95-1.99-11.93-1.32-2.97-3.6-4.94-6.81-5.9v-.24c5.78-2.33,8.68-7.87,8.68-16.63v-5.18c0-6.59-1.57-11.47-4.7-14.64-3.13-3.17-8.11-4.76-14.94-4.76h-19.64v84.34h13.25v-36.15h4.58c3.05,0,5.2.76,6.45,2.29,1.24,1.53,1.87,4.22,1.87,8.07v15.42c0,3.13.08,5.3.24,6.51.16,1.21.48,2.49.96,3.86h13.5c-.64-1.45-1.04-2.91-1.2-4.4-.16-1.49-.24-3.43-.24-5.84ZM369.25,282.7c0,3.21-.66,5.5-1.99,6.87-1.33,1.37-3.31,2.05-5.96,2.05h-4.82v-24.1h6.03c2.33,0,4.04.68,5.12,2.05,1.08,1.37,1.63,3.58,1.63,6.63v6.51Z"/>
  <path class="st0" d="M410.94,254.26c-6.51,0-11.49,1.85-14.94,5.54-3.45,3.7-5.18,8.92-5.18,15.66v44.34c0,6.75,1.73,11.97,5.18,15.66,3.45,3.69,8.43,5.54,14.94,5.54s11.49-1.85,14.94-5.54c3.45-3.69,5.18-8.92,5.18-15.66v-44.34c0-6.75-1.73-11.97-5.18-15.66-3.45-3.69-8.43-5.54-14.94-5.54ZM417.81,320.65c0,5.54-2.29,8.31-6.87,8.31s-6.87-2.77-6.87-8.31v-46.03c0-5.54,2.29-8.31,6.87-8.31s6.87,2.77,6.87,8.31v46.03Z"/>
  <polygon class="st0" points="467.21 255.47 458.53 320.89 458.29 320.89 449.62 255.47 436.24 255.47 449.01 339.81 466.61 339.81 479.38 255.47 467.21 255.47"/>
  <path class="st0" d="M560.22,255.47l-9.18,56.39h-31.27l-9.18-56.39h-17.95l-13.74,84.34h12.29l2.41-16.51h15.06v-.24l2.41,16.75h13.25l-2.73-16.75h27.62l-2.73,16.75h12.29l2.41-16.51h15.06v-.24l2.41,16.75h13.25l-13.74-84.34h-17.95ZM500.94,270.17h.24l5.9,41.69h-11.93l5.79-41.69ZM568.54,270.17h.24l5.9,41.69h-11.93l5.79-41.69Z"/>
  <rect class="st0" x="598.3" y="255.47" width="13.25" height="84.34"/>
</svg>